<svg version="1.1" id="Layer_1" xmlns="http://www.w3.org/2000/svg" xmlns:xlink="http://www.w3.org/1999/xlink" x="0px" y="0px"
	 width="100%" viewBox="0 0 1024 544" enable-background="new 0 0 1024 544" xml:space="preserve">
<path fill="#000000" opacity="1.000000" stroke="none" 
	d="
M615.115845,398.556183 
	C612.216980,398.883301 609.737854,399.288727 607.258606,399.289795 
	C535.763550,399.320587 464.268524,399.328339 392.773468,399.296021 
	C374.008453,399.287567 359.741821,385.279816 359.692993,366.461517 
	C359.571442,319.631805 359.602203,272.801483 359.690613,225.971619 
	C359.722229,209.226288 371.993378,196.939285 388.782532,196.732544 
	C402.612854,196.562241 416.448975,196.550064 430.277893,196.765945 
	C434.333252,196.829254 436.565247,195.631592 438.257599,191.780258 
	C442.812866,181.413956 447.668610,171.168274 452.739014,161.041916 
	C466.698822,133.162155 498.039764,122.690033 525.128418,136.954544 
	C536.121277,142.743225 543.673767,151.852249 548.711914,163.225311 
	C553.162903,173.272995 558.085510,183.110855 562.679688,193.096649 
	C563.883606,195.713470 565.550903,196.780762 568.471741,196.734756 
	C577.635437,196.590393 586.802979,196.683014 595.968994,196.691452 
	C615.541931,196.709473 627.493591,208.260513 628.037476,227.824051 
	C628.213501,234.152328 628.321289,240.500076 628.021729,246.818130 
	C627.804932,251.391983 629.371155,252.821915 634.000732,252.794418 
	C649.767090,252.700745 661.965698,262.297852 665.704834,277.348175 
	C667.218140,283.439209 667.056213,289.591339 665.232727,295.602173 
	C657.356689,321.563568 649.478333,347.524597 641.468323,373.444794 
	C637.443237,386.469788 629.389465,395.516937 615.115845,398.556183 
M492.942261,271.289154 
	C479.463715,272.939850 469.558319,279.879944 463.781036,292.064758 
	C451.079926,318.852600 438.682037,345.784271 426.173889,372.663574 
	C424.942474,375.309875 423.804993,377.999908 422.218292,381.586426 
	C474.546722,381.490479 525.912109,381.981384 577.139343,381.099670 
	C577.801514,379.147797 576.757446,378.087189 576.215149,376.949036 
	C567.903320,359.504944 559.547546,342.081787 551.206116,324.651794 
	C550.055481,322.247345 548.879456,319.846405 548.688782,317.121552 
	C548.261780,311.019867 551.952393,307.324463 558.050537,307.625183 
	C563.794556,307.908447 565.684021,312.345825 567.725037,316.544373 
	C575.808594,333.173096 583.816101,349.838806 591.890991,366.471771 
	C593.488342,369.762238 594.994873,373.121246 597.503967,375.882782 
	C605.164856,384.314484 617.383972,382.516602 622.178162,372.204407 
	C622.947144,370.550323 623.522339,368.795197 624.066467,367.049164 
	C631.741943,342.419037 639.461487,317.802338 647.031067,293.139618 
	C651.353088,279.057831 645.459412,271.050018 630.838806,271.006317 
	C605.507935,270.930573 580.176758,270.918030 554.845764,270.955902 
	C534.516296,270.986298 514.186951,271.130554 492.942261,271.289154 
M538.788391,185.622330 
	C535.261169,177.895447 532.091553,169.965668 527.273743,162.918945 
	C521.916565,155.083359 514.400208,150.362305 504.954559,149.299423 
	C487.754700,147.363937 475.722717,154.750244 467.748199,171.735260 
	C441.414215,227.824356 415.073364,283.910248 388.742859,340.000946 
	C385.487366,346.936005 382.009583,353.783325 379.121216,360.869537 
	C376.113586,368.248352 379.281555,376.255951 385.994263,379.704041 
	C392.593414,383.093781 400.161835,380.919586 404.554962,373.962616 
	C406.944733,370.178162 408.836792,366.058655 410.738647,361.989960 
	C436.839172,306.153015 462.906189,250.300446 488.967133,194.445038 
	C491.195984,189.667969 494.086853,185.762665 499.995819,185.735046 
	C505.927338,185.707336 508.756134,189.598038 510.998383,194.408081 
	C519.374023,212.375412 527.961304,230.245392 536.172363,248.287003 
	C537.769958,251.797241 539.723206,252.887238 543.359253,252.765259 
	C550.517944,252.525101 557.690613,252.730286 564.856445,252.653839 
	C566.416138,252.637192 568.258301,253.274033 569.782349,250.896698 
	C559.655212,229.576187 549.378845,207.941467 538.788391,185.622330 
M377.329468,240.503418 
	C377.329468,266.682465 377.329468,292.861511 377.329468,319.040588 
	C377.624298,319.073975 377.919159,319.107391 378.213989,319.140778 
	C394.485748,284.650391 410.757507,250.159988 427.217560,215.270477 
	C425.410889,214.787231 424.644104,214.405212 423.876343,214.403290 
	C412.226196,214.374115 400.569275,214.161148 388.928162,214.491608 
	C381.982208,214.688766 377.808411,219.351364 377.415405,226.526123 
	C377.179047,230.841309 377.344879,235.178513 377.329468,240.503418 
M578.178040,225.433304 
	C581.900269,233.254654 585.722717,241.030640 589.291687,248.921310 
	C590.586121,251.783295 592.400208,252.909866 595.480957,252.727661 
	C598.969177,252.521317 602.478394,252.613083 605.977234,252.663147 
	C608.484070,252.698990 609.623779,251.589371 609.607727,249.061539 
	C609.557983,241.229630 609.833252,233.386139 609.491516,225.568604 
	C609.218506,219.325653 606.453247,215.672958 600.862061,214.886032 
	C591.996338,213.638214 583.034241,214.198807 573.291626,214.715607 
	C575.023132,218.505707 576.448425,221.625610 578.178040,225.433304 
M492.998383,229.404572 
	C489.134064,237.735977 485.269745,246.067368 480.767365,255.774475 
	C493.525940,251.363892 505.374664,253.338379 517.684570,252.327530 
	C511.704193,239.622925 506.098114,227.713547 500.198578,215.180740 
	C496.834991,219.856049 495.576324,224.551727 492.998383,229.404572 
z"/>
</svg>